<?xml version="1.0" encoding="utf-8"?>
<!-- Generator: Adobe Illustrator 26.5.0, SVG Export Plug-In . SVG Version: 6.00 Build 0)  -->
<svg version="1.1" id="Layer_1" xmlns="http://www.w3.org/2000/svg" xmlns:xlink="http://www.w3.org/1999/xlink" x="0px" y="0px"
	 viewBox="0 0 32 32" style="enable-background:new 0 0 32 32;" xml:space="preserve">
<style type="text/css">
	.st0{fill:#FFFFFF;}
</style>
<path class="st0" d="M15,31.8c-0.5-0.2-0.9-0.6-1.1-1.1L0.2,3.6c-0.5-0.9-0.2-2,0.6-2.7c0.9-0.7,2.3-0.5,3,0.5
	C3.8,1.5,3.9,1.6,4,1.7l11.9,23.5c0,0,0,0,0.1,0c0,0,0,0,0,0l10.6-21c0,0,0-0.1,0-0.1c0,0,0,0,0,0h-11c0,0-0.1,0-0.1,0c0,0,0,0,0,0
	L17.8,9c0.6,1,0.3,2.3-0.7,2.9c-1,0.6-2.3,0.3-2.9-0.7c0-0.1-0.1-0.2-0.1-0.3l-4-7.9C9.9,2.7,9.8,2.4,9.8,2c0-1.1,1-2,2.1-2h17.9
	c0.4,0,0.7,0.1,1,0.2c1,0.5,1.4,1.7,0.9,2.8l-14,27.9C17.2,31.8,16.1,32.3,15,31.8z"/>
</svg>
