<svg xmlns="http://www.w3.org/2000/svg" width="32" height="32" viewBox="0 0 32 32">
  <path d="M15.043,31.844a2.18,2.18,0,0,1-1.116-1.082L.245,3.624A2.127,2.127,0,0,1,.814.941a2.12,2.12,0,0,1,3.141.737L15.807,25.186a.052.052,0,0,0,.092,0L26.473,4.213a.051.051,0,0,0-.046-.073H15.405a.051.051,0,0,0-.047.073l2.417,4.793a2.1,2.1,0,1,1-3.711,1.946l-4-7.931a2.026,2.026,0,0,1-.242-1.01A2.1,2.1,0,0,1,11.932,0H29.863a2.094,2.094,0,0,1,1.025.235,2.069,2.069,0,0,1,.893,2.756L17.735,30.851A2.122,2.122,0,0,1,15.043,31.844Z"/>
</svg>
